<svg id="Group_50" data-name="Group 50" xmlns="http://www.w3.org/2000/svg" width="614.467" height="66.48" viewBox="0 0 614.467 66.48">
  <defs>
    <style>
      .cls-1 {
        fill: #282828;
      }
    </style>
  </defs>
  <path id="Path_13" data-name="Path 13" class="cls-1" d="M720.712,301.212c-25.853,3.991-43.993-18.754-67.938-22.687-10.212-1.678-22.744-.668-29.692,7.919a16.465,16.465,0,0,0-2.583,4.422c5.585,3.451,8.989,8.689,6.787,16.357a8.193,8.193,0,0,0,9.832-6.078c.076-.283,1.222.013,1.161.311-1.3,6.385-6.28,7.885-11.243,6.576-.216.648-.455,1.308-.751,1.99-3.434,7.938-13.214,8.442-20.12,5.147-5.971-2.849-12.369-10.032-4.006-14.364.726-.375,3.121.774,2.734.99-10.705,5.963,6.623,19.607,14.908,9.094a15.006,15.006,0,0,0,2.584-4.917c-3.692-2.34-6.6-6.07-6.783-10.108a19.623,19.623,0,0,1,.463-5.365c-.351-.2-.7-.4-1.08-.575-7.524-3.5-17.081-3.358-25.485-2.754a14.666,14.666,0,0,1,2.9,5.644c.1.377-.831.175-.941-.113a13.12,13.12,0,0,0-3.922-5.381c-.436.035-.872.07-1.3.106-10.174.851-18.263,3.711-27.377,8.374-26.472,13.543-53.635,38.236-85.187,36.611a33.507,33.507,0,0,1-8.855-1.667,40.521,40.521,0,0,1-7.665.384c-6.187-.3-17.261-2.566-20.469-8.88-3.209,6.314-14.283,8.575-20.472,8.88a40.5,40.5,0,0,1-7.663-.384,33.507,33.507,0,0,1-8.856,1.667c-31.55,1.625-58.715-23.068-85.186-36.611-9.113-4.663-17.2-7.523-27.377-8.374-.428-.036-.864-.071-1.3-.106a13.128,13.128,0,0,0-3.922,5.381c-.11.288-1.038.49-.941.113a14.666,14.666,0,0,1,2.9-5.644c-8.4-.6-17.961-.742-25.485,2.754-.377.175-.729.376-1.08.575a19.661,19.661,0,0,1,.464,5.365c-.182,4.038-3.092,7.768-6.783,10.108a14.983,14.983,0,0,0,2.583,4.917c8.285,10.513,25.612-3.131,14.908-9.094-.387-.216,2.008-1.365,2.734-.99,8.364,4.332,1.964,11.515-4.005,14.364-6.907,3.295-16.686,2.791-20.121-5.147-.3-.682-.536-1.342-.751-1.99-4.963,1.309-9.942-.191-11.243-6.576-.061-.3,1.085-.594,1.161-.311a8.193,8.193,0,0,0,9.832,6.078c-2.2-7.668,1.2-12.906,6.787-16.357a16.487,16.487,0,0,0-2.582-4.422c-6.949-8.587-19.481-9.6-29.693-7.919-23.945,3.933-42.086,26.678-67.938,22.687-9.194-1.42-23.813-6.7-23.188-18.431.52-9.768,9.083-16.6,18.565-16.772,7.679-.143,14.1,8.412,7.809,14.381-3.208,3.041-9.493,4.183-9.429-1.46,0-.42,1.484-.783,1.547-.416,1.064,6.185,9.813.3,6.566-5.068-5.1-8.429-17.819-4.35-19.3,4.821-2.21,13.7,12.4,20.9,24.119,21.353,23.178.9,39.776-19.408,62.032-22.869,11.966-1.861,30.979-.662,35.44,12.089a53.374,53.374,0,0,1,16.286-3.649A108.687,108.687,0,0,1,285.95,285c5.108-4.448,12.907-6.457,19.408-6.224,14.631.522,27.658,7.75,39.928,15.119,14.792,8.885,29.317,18.874,44.8,26.523,6.507,3.215,13.4,6.435,20.628,7.663A22.557,22.557,0,0,0,421.791,317.6c5.212-9.729,7.953-25.339-2.777-32.73-7.486-5.156-18.977-5.316-24.225,3.342-1.395,2.3-2.4,5.174-1.059,7.777a9.464,9.464,0,0,0,3.131,4.016c.954.565,6,3.423,5.657-.888-.04-.5,1.877-.909,1.934-.518.626,4.283-4.648,4.795-7.808,4-6.972-1.747-9.62-8.8-5.461-14.638,8.119-11.393,27.469-11.765,36.075-1.186,6.4,7.866,4.894,21.94-.582,29.952a36.7,36.7,0,0,1-12.886,11.76c7.556.578,19.084-1.047,22.134-8.524a9.029,9.029,0,0,1-.03-2.915c.038-.252.6-.143.792.052.191-.2.753-.3.79-.052a9.031,9.031,0,0,1-.029,2.915c3.049,7.477,14.579,9.1,22.133,8.524a36.688,36.688,0,0,1-12.884-11.76c-5.478-8.012-6.981-22.086-.583-29.952,8.607-10.579,27.956-10.207,36.073,1.186,4.161,5.838,1.512,12.891-5.459,14.638-3.16.792-8.435.28-7.808-4,.058-.391,1.974.013,1.934.518-.339,4.311,4.7,1.453,5.656.888a9.474,9.474,0,0,0,3.132-4.016c1.342-2.6.337-5.478-1.058-7.777-5.249-8.658-16.74-8.5-24.226-3.342-10.73,7.391-7.989,23-2.777,32.73a22.553,22.553,0,0,0,11.075,10.483c7.225-1.228,14.121-4.448,20.628-7.663,15.485-7.649,30.009-17.638,44.8-26.523,12.27-7.369,25.3-14.6,39.929-15.119,6.5-.233,14.3,1.776,19.408,6.224a108.673,108.673,0,0,1,12.841.188,53.374,53.374,0,0,1,16.286,3.649c4.462-12.751,23.473-13.95,35.44-12.089,22.256,3.461,38.855,23.773,62.032,22.869,11.723-.458,26.33-7.649,24.12-21.353-1.479-9.171-14.2-13.25-19.3-4.821-3.248,5.366,5.5,11.253,6.565,5.068.064-.367,1.542,0,1.547.416.064,5.643-6.222,4.5-9.429,1.46-6.295-5.969.13-14.524,7.81-14.381,9.48.176,18.044,7,18.563,16.772C744.525,294.514,729.906,299.792,720.712,301.212Zm-467.1-7.72a12.985,12.985,0,0,0-2.957,11.17,9.709,9.709,0,0,0,1.843-2.7A14.051,14.051,0,0,0,253.607,293.492Zm122.5,23.94c-15.52-8.945-30.491-19.219-46.453-27.351-7.452-3.8-15.733-7.794-24.237-8.225a33.213,33.213,0,0,0-16.38,3.333c3.291.246,6.568.646,9.807,1.213,10.673,1.868,20.129,7.222,29.435,12.594,14.717,8.5,28.933,18.3,44.661,24.887,9.2,3.854,20.994,7.489,31.2,6.016C394.178,327.555,384.592,322.324,376.105,317.432Zm191.851-35.576c-8.5.431-16.785,4.428-24.237,8.225-15.961,8.132-30.933,18.406-46.452,27.351-8.488,4.892-18.074,10.123-28.031,12.467,10.2,1.473,22-2.162,31.2-6.016,15.73-6.592,29.944-16.391,44.662-24.887,9.306-5.372,18.762-10.726,29.435-12.594,3.24-.567,6.516-.967,9.807-1.213A33.213,33.213,0,0,0,567.956,281.856Zm51.808,11.636a14.066,14.066,0,0,0,1.114,8.469,9.71,9.71,0,0,0,1.843,2.7A12.988,12.988,0,0,0,619.764,293.492Z" transform="translate(-129.452 -266.008)"/>
</svg>
